HIERARCHY
ROOT Hips
{
	OFFSET 51.462898 16.116091 57.619404
	CHANNELS 6 Xposition Yposition Zposition Xrotation Yrotation Zrotation
	JOINT spine
	{
		OFFSET 0.000000 -0.429886 7.475597
		CHANNELS 3 Xrotation Yrotation Zrotation
		JOINT spine1
		{
			OFFSET 0.000000 -0.000002 9.923012
			CHANNELS 3 Xrotation Yrotation Zrotation
			JOINT spine2
			{
				OFFSET 0.000000 -0.000001 9.508041
				CHANNELS 3 Xrotation Yrotation Zrotation
				JOINT Neck
				{
					OFFSET 0.000000 -1.163845 24.411102
					CHANNELS 3 Xrotation Yrotation Zrotation
					JOINT Head
					{
						OFFSET 0.000000 -0.000001 7.375229
						CHANNELS 3 Xrotation Yrotation Zrotation
						End Site
						{
							OFFSET 0.000000 5.887409 17.852196
						}
					}
				}
				JOINT RightShoulder
				{
					OFFSET -4.003559 0.557466 10.267899
					CHANNELS 3 Xrotation Yrotation Zrotation
					JOINT RightArm
					{
						OFFSET 0.000000 -0.000002 13.467300
						CHANNELS 3 Xrotation Yrotation Zrotation
						JOINT RightArmRoll
						{
							OFFSET 0.000000 -0.000002 6.798576
							CHANNELS 3 Xrotation Yrotation Zrotation
							JOINT RightForeArm
							{
								OFFSET 0.000000 -0.000004 19.801804
								CHANNELS 3 Xrotation Yrotation Zrotation
								JOINT RightForeArmRoll
								{
									OFFSET 0.000000 0.000000 7.629044
									CHANNELS 3 Xrotation Yrotation Zrotation
									JOINT RightHand
									{
										OFFSET 0.000000 -0.000002 15.309799
										CHANNELS 3 Xrotation Yrotation Zrotation
										End Site
										{
											OFFSET 0.000000 0.000000 0.100006
										}
									}
								}
							}
						}
					}
				}
				JOINT LeftShoulder
				{
					OFFSET 4.003559 0.557466 10.267899
					CHANNELS 3 Xrotation Yrotation Zrotation
					JOINT LeftArm
					{
						OFFSET 0.000000 -0.000002 13.467300
						CHANNELS 3 Xrotation Yrotation Zrotation
						JOINT LeftArmRoll
						{
							OFFSET 0.000000 -0.000002 6.798576
							CHANNELS 3 Xrotation Yrotation Zrotation
							JOINT LeftForeArm
							{
								OFFSET 0.000000 -0.000004 19.801804
								CHANNELS 3 Xrotation Yrotation Zrotation
								JOINT LeftForeArmRoll
								{
									OFFSET 0.000000 0.000000 7.629044
									CHANNELS 3 Xrotation Yrotation Zrotation
									JOINT LeftHand
									{
										OFFSET 0.000000 -0.000002 15.309799
										CHANNELS 3 Xrotation Yrotation Zrotation
										End Site
										{
											OFFSET 0.000000 0.000000 0.100006
										}
									}
								}
							}
						}
					}
				}
			}
		}
	}
	JOINT RightUpLeg
	{
		OFFSET -6.626091 1.019270 -1.215050
		CHANNELS 3 Xrotation Yrotation Zrotation
		JOINT RightUpLegRoll
		{
			OFFSET 0.000000 -0.000002 17.951694
			CHANNELS 3 Xrotation Yrotation Zrotation
			JOINT RightLeg
			{
				OFFSET 0.000000 0.000004 -22.230396
				CHANNELS 3 Xrotation Yrotation Zrotation
				JOINT RightLegRoll
				{
					OFFSET 0.000000 -0.000004 22.303196
					CHANNELS 3 Xrotation Yrotation Zrotation
					JOINT RightFoot
					{
						OFFSET 0.000000 -0.000004 18.563599
						CHANNELS 3 Xrotation Yrotation Zrotation
						JOINT RightToeBase
						{
							OFFSET 0.000000 -0.000002 15.518303
							CHANNELS 3 Xrotation Yrotation Zrotation
							End Site
							{
								OFFSET 0.006577 0.866261 7.515381
							}
						}
					}
				}
			}
		}
	}
	JOINT LeftUpLeg
	{
		OFFSET 6.626091 1.019270 -1.215050
		CHANNELS 3 Xrotation Yrotation Zrotation
		JOINT LeftUpLegRoll
		{
			OFFSET 0.000000 -0.000002 17.951794
			CHANNELS 3 Xrotation Yrotation Zrotation
			JOINT LeftLeg
			{
				OFFSET 0.000000 -0.000004 22.230301
				CHANNELS 3 Xrotation Yrotation Zrotation
				JOINT LeftLegRoll
				{
					OFFSET 0.000000 -0.000004 22.509300
					CHANNELS 3 Xrotation Yrotation Zrotation
					JOINT LeftFoot
					{
						OFFSET 0.000000 -0.000004 18.357498
						CHANNELS 3 Xrotation Yrotation Zrotation
						JOINT LeftToeBase
						{
							OFFSET 0.000000 -0.000002 15.518295
							CHANNELS 3 Xrotation Yrotation Zrotation
							End Site
							{
								OFFSET -0.029476 0.866261 7.515381
							}
						}
					}
				}
			}
		}
	}
}
MOTION
Frames: 9
Frame Time: 0.041667
51.668095 16.079990 58.341995 -7.774072 1.488687 2.115405 2.491833 -0.052546 -0.755267 8.991449 -0.145160 -1.505551 10.636345 -0.163182 -1.503714 -0.216653 6.171357 -0.704403 7.360854 -7.143126 -0.514340 -9.236260 -70.288582 -11.595534 -62.232497 -127.117361 -55.891902 0.000003 -0.000001 -0.000003 23.474402 -9.744321 0.724235 0.000002 -0.000003 -3.007940 -5.000207 -7.999413 0.000088 -23.759235 66.622635 27.845949 -64.828577 120.403094 47.017250 0.000003 0.000001 0.000002 14.709622 2.491266 0.752248 0.000001 -0.000011 3.006422 -5.000165 7.999939 -0.000013 -76.555117 175.605953 10.421059 179.999991 -0.000004 -2.161996 91.470720 5.659108 -1.290699 -0.000004 0.000002 2.549680 65.401151 7.302108 1.382994 25.456957 -7.360391 0.000005 -74.937024 176.259971 -7.070959 -0.000004 -0.000003 -1.776170 -85.303769 -4.866053 0.370853 -0.000001 0.000004 -2.088550 64.912199 -8.596578 1.603255 28.555288 7.345342 -0.395937 
51.661797 16.093494 58.344704 -7.902483 1.485039 2.148217 2.490882 -0.060186 -0.755297 8.990146 -0.160501 -1.505188 10.635052 -0.178518 -1.503169 -0.059515 6.224397 -0.722532 7.378412 -7.143024 -0.531574 -9.294761 -70.257470 -11.658651 -62.164769 -127.072432 -55.800678 0.000000 -0.000001 -0.000003 23.372825 -9.753326 0.719840 -0.000001 -0.000004 -3.007940 -5.000209 -7.999412 0.000088 -23.665485 66.690097 27.737537 -64.868731 120.373464 46.940082 0.000003 0.000000 -0.000001 14.454557 2.418260 0.760682 0.000002 -0.000011 3.006421 -5.000164 7.999941 -0.000012 -76.468681 175.603603 10.415859 179.999991 -0.000004 -2.164003 91.449778 5.675448 -1.279872 -0.000004 0.000002 2.551479 65.404293 7.302138 1.382488 25.456955 -7.360391 0.000005 -74.820597 176.258414 -7.093223 -0.000005 -0.000004 -1.779910 -85.283224 -4.861090 0.373923 -0.000001 0.000004 -2.088220 64.888771 -8.612482 1.636846 28.553770 7.345401 -0.395759 
51.656796 16.106991 58.342705 -8.030494 1.481535 2.180576 2.489950 -0.067709 -0.755454 8.988852 -0.175602 -1.505103 10.633762 -0.193618 -1.502898 0.095845 6.276713 -0.741043 7.397172 -7.143855 -0.548755 -9.351693 -70.224788 -11.719946 -62.092580 -127.029757 -55.703611 0.000001 -0.000000 -0.000004 23.268066 -9.761974 0.715103 -0.000000 -0.000004 -3.007940 -5.000209 -7.999411 0.000088 -23.572900 66.756623 27.630509 -64.908906 120.343780 46.863420 0.000002 -0.000001 0.000000 14.200546 2.345185 0.768769 0.000001 -0.000011 3.006419 -5.000167 7.999939 -0.000013 -76.381596 175.600858 10.409890 179.999991 -0.000004 -2.165002 91.429315 5.691551 -1.269061 -0.000003 0.000002 2.553230 65.407538 7.302142 1.381972 25.456959 -7.360390 0.000006 -74.703760 176.255750 -7.114069 -0.000006 -0.000004 -1.783631 -85.262549 -4.856073 0.377094 -0.000001 0.000004 -2.087900 64.865890 -8.628416 1.670567 28.552358 7.345463 -0.395600 
51.657997 16.125694 58.331005 -8.158145 1.478185 2.212202 2.489135 -0.075043 -0.755806 8.987700 -0.190316 -1.505429 10.632571 -0.208334 -1.503049 0.248810 6.328073 -0.759604 7.417459 -7.145613 -0.565542 -9.406544 -70.191081 -11.778905 -62.018965 -126.989090 -55.604471 0.000003 -0.000001 -0.000003 23.160121 -9.770176 0.709987 0.000001 -0.000004 -3.007940 -5.000211 -7.999413 0.000088 -23.482431 66.821407 27.526000 -64.947517 120.314438 46.785949 0.000004 0.000001 0.000003 13.948992 2.272194 0.776513 0.000001 -0.000011 3.006421 -5.000162 7.999939 -0.000012 -76.293876 175.596869 10.405331 179.999991 -0.000004 -2.166993 91.409542 5.707379 -1.258273 -0.000003 0.000002 2.554940 65.410789 7.302184 1.381465 25.456962 -7.360391 0.000006 -74.586574 176.252553 -7.136102 -0.000006 -0.000003 -1.787329 -85.241772 -4.851017 0.380166 -0.000000 0.000004 -2.087590 64.843651 -8.644351 1.704333 28.551048 7.345534 -0.395434 
51.648994 16.132593 58.339405 -8.285516 1.474999 2.242853 2.488504 -0.082115 -0.756419 8.986838 -0.204494 -1.506300 10.631682 -0.222522 -1.503749 0.398749 6.378228 -0.777876 7.439580 -7.148283 -0.581581 -9.458842 -70.156985 -11.835020 -61.943341 -126.951374 -55.502496 0.000002 -0.000001 -0.000003 23.048967 -9.777835 0.704452 0.000002 -0.000004 -3.007941 -5.000214 -7.999412 0.000088 -23.395363 66.883746 27.425460 -64.986238 120.285123 46.709775 0.000002 0.000000 0.000002 13.701190 2.199446 0.783932 0.000001 -0.000011 3.006421 -5.000167 7.999939 -0.000013 -76.205001 175.592033 10.399445 179.999991 -0.000004 -2.170000 91.390547 5.722828 -1.248510 -0.000004 0.000002 2.556581 65.414142 7.302204 1.380943 25.456959 -7.360391 0.000006 -74.468876 176.248196 -7.157722 -0.000006 -0.000004 -1.790990 -85.220953 -4.845857 0.383334 -0.000001 0.000004 -2.087280 64.822129 -8.660211 1.738065 28.549742 7.345626 -0.395267 
51.646999 16.151089 58.327801 -8.412648 1.471996 2.272232 2.488146 -0.088853 -0.757359 8.986406 -0.217988 -1.507867 10.631291 -0.236034 -1.505155 0.545042 6.426963 -0.795519 7.463809 -7.151856 -0.596520 -9.508019 -70.122929 -11.887705 -61.867614 -126.916827 -55.400013 0.000001 -0.000001 -0.000003 22.934732 -9.784931 0.698520 0.000001 -0.000004 -3.007940 -5.000207 -7.999414 0.000088 -23.312880 66.942944 27.330261 -65.024856 120.255630 46.635019 0.000003 0.000001 0.000003 13.458451 2.127086 0.791072 -0.000000 -0.000011 3.006422 -5.000167 7.999938 -0.000011 -76.115184 175.585585 10.394466 179.999991 -0.000004 -2.171996 91.372413 5.737780 -1.238788 -0.000004 0.000002 2.558160 65.417510 7.302261 1.380433 25.456957 -7.360390 0.000006 -74.350646 176.242322 -7.178461 -0.000006 -0.000003 -1.794600 -85.200128 -4.840629 0.386597 -0.000001 0.000004 -2.086949 64.801304 -8.675912 1.771380 28.548637 7.345712 -0.395121 
51.645294 16.165890 58.327499 -8.539600 1.469196 2.300096 2.488137 -0.095185 -0.758695 8.986535 -0.230651 -1.510264 10.631400 -0.248724 -1.507402 0.687069 6.474040 -0.812185 7.490474 -7.156345 -0.609988 -9.553523 -70.089352 -11.936363 -61.791191 -126.886419 -55.296262 0.000002 -0.000001 -0.000004 22.817391 -9.791465 0.692194 0.000002 -0.000004 -3.007940 -5.000212 -7.999412 0.000088 -23.236220 66.998275 27.241825 -65.060250 120.226834 46.558377 0.000002 0.000001 0.000003 13.222363 2.055261 0.797974 0.000001 -0.000012 3.006422 -5.000168 7.999939 -0.000013 -76.023892 175.577908 10.387649 179.999991 -0.000004 -2.174003 91.355351 5.752205 -1.228101 -0.000003 0.000003 2.559661 65.420979 7.302293 1.379809 25.456960 -7.360391 0.000006 -74.231800 176.235232 -7.199621 -0.000005 -0.000003 -1.798149 -85.179337 -4.835347 0.389856 -0.000001 0.000004 -2.086592 64.781182 -8.691499 1.804572 28.547433 7.345819 -0.394931 
51.643700 16.180193 58.324696 -8.666435 1.466639 2.326172 2.488556 -0.101038 -0.760490 8.987372 -0.242332 -1.513633 10.632213 -0.260445 -1.510618 0.824197 6.519231 -0.827524 7.519876 -7.161706 -0.621651 -9.594968 -70.056991 -11.980620 -61.714625 -126.860655 -55.191941 0.000002 -0.000001 -0.000003 22.696964 -9.797431 0.685489 0.000001 -0.000003 -3.007941 -5.000212 -7.999412 0.000088 -23.166591 67.049044 27.161536 -65.093991 120.198297 46.482026 0.000002 -0.000000 0.000002 12.994130 1.984121 0.804683 0.000001 -0.000012 3.006422 -5.000167 7.999939 -0.000011 -75.931254 175.568223 10.381246 179.999991 -0.000004 -2.175998 91.339546 5.765950 -1.219466 -0.000003 0.000002 2.561080 65.424442 7.302324 1.379284 25.456959 -7.360390 0.000006 -74.112224 176.226544 -7.220848 -0.000004 -0.000003 -1.801620 -85.158566 -4.830030 0.393109 -0.000001 0.000004 -2.086190 64.761818 -8.706811 1.837180 28.546431 7.345927 -0.394762 
51.635201 16.188290 58.332100 -8.793388 1.464618 2.350736 2.489295 -0.106560 -0.762776 8.988700 -0.253312 -1.518020 10.633522 -0.271478 -1.514880 0.958505 6.563391 -0.841660 7.551401 -7.168815 -0.631608 -9.631548 -70.024875 -12.019491 -61.637410 -126.839031 -55.085780 0.000003 -0.000001 -0.000003 22.571591 -9.802675 0.678188 0.000001 -0.000004 -3.007941 -5.000208 -7.999412 0.000088 -23.102635 67.096227 27.087840 -65.127350 120.169324 46.406453 0.000003 -0.000000 0.000000 12.770941 1.913059 0.811310 0.000001 -0.000012 3.006419 -5.000163 7.999939 -0.000014 -75.837018 175.556666 10.373969 179.999991 -0.000004 -2.178006 91.324738 5.779205 -1.209870 -0.000003 0.000002 2.562440 65.428103 7.302345 1.378844 25.456957 -7.360390 0.000006 -73.991583 176.215848 -7.241304 -0.000005 -0.000004 -1.805040 -85.137509 -4.824773 0.396476 -0.000001 0.000004 -2.085769 64.743261 -8.721975 1.869581 28.545427 7.346059 -0.394578 
